<svg xmlns="http://www.w3.org/2000/svg" width="891" height="229" viewBox="0 0 891 229">
  <defs>
    <style>
      .cls-1 {
        fill: #651fff;
        fill-rule: evenodd;
      }
    </style>
  </defs>
  <path id="highfive" class="cls-1" d="M38.913,92.673q5.982-6.6,16-6.6,11.232,0,16.731,6.6t5.5,17.367v70.2h32.485V104.414q0-21.034-11.358-34.366T64.926,56.717q-21.5,0-32.486,13.208V3.15H-0.045V180.24H32.44V109.551Q32.927,99.278,38.913,92.673ZM175.084,59.9H142.6V180.24h32.486V59.9ZM144.552,34.459a20.029,20.029,0,0,0,28.333,0,19.057,19.057,0,0,0,5.863-13.942,19.63,19.63,0,0,0-5.863-14.431A19.289,19.289,0,0,0,158.719.215a19.094,19.094,0,0,0-14.167,5.993,19.757,19.757,0,0,0-5.862,14.309A19.06,19.06,0,0,0,144.552,34.459Zm75.351,183.2q15.995,12.715,39.691,12.72,31.749,0,47.385-17.978t15.632-45.129V59.9H291.346V74.084q-3.423-6.845-12.212-11.618T257.151,57.7q-24.182,0-40.057,17.122T201.217,116.4q0,25.2,16,41.827t39.935,16.633q12.211,0,20.762-4.4t12.7-11.007v8.8q0,33.509-32,33.511-11.238,0-18.808-6.36a26.524,26.524,0,0,1-9.281-16.388l-29.311,7.827Q203.9,204.943,219.9,217.663Zm22.1-79.005q-8.06-8.313-8.06-22.259,0-13.695,8.183-22.014t20.639-8.316a27.18,27.18,0,0,1,20.151,8.316Q291.1,102.7,291.1,116.4q0,13.942-7.938,22.259t-20.395,8.316Q250.066,146.974,242.007,138.658ZM394.539,92.673q5.984-6.6,16-6.6,11.232,0,16.731,6.6t5.5,17.367v70.2h32.486V104.414q0-21.034-11.358-34.366T420.552,56.717q-21.5,0-32.485,13.208V3.15H355.581V180.24h32.486V109.551Q388.553,99.278,394.539,92.673ZM585.178,180.24H617.42V59.9H537.061V46.689q0-9.046,5.129-12.841a19.221,19.221,0,0,1,11.724-3.791,36.9,36.9,0,0,1,10.259,1.223V3.884Q558.8,1.442,548.052,1.438q-20.031,0-31.875,12.23T504.331,46.2V59.9H484.3V87.781h20.029V180.24h32.73V87.781h48.117V180.24ZM601.3,40.085a19.5,19.5,0,0,0,14.167-5.748,18.935,18.935,0,0,0,5.862-14.064,19.757,19.757,0,0,0-5.862-14.309,19.742,19.742,0,0,0-28.334,0,19.757,19.757,0,0,0-5.862,14.309,18.935,18.935,0,0,0,5.862,14.064A19.488,19.488,0,0,0,601.3,40.085ZM731.485,59.9l-28.578,80.718L673.108,59.9h-35.66L686.542,180.24h32.486L765.68,59.9H731.485Zm81.824,30.086q7.327-7.338,19.052-7.338,12.943,0,19.662,6.849a25.028,25.028,0,0,1,7.206,16.877H805.493Q805.979,97.325,813.309,89.983Zm21.739,66.041a30.5,30.5,0,0,1-21.006-7.827,26.689,26.689,0,0,1-9.282-19.568h85.977l0.244-1.712q0-1.467.123-3.913t0.122-4.4q0-29.106-15.755-45.74t-43.6-16.633q-23.94,0-41.523,17.733t-17.586,45.618q0,29.352,18.075,46.841T834.8,183.909q21.25,0,35.539-10.763a51.876,51.876,0,0,0,19.174-27.395L862.4,137.68q-6.6,18.343-27.356,18.344h0Z"/>
</svg>
